<svg width="40" height="40" viewBox="0 0 40 40" fill="none" xmlns="http://www.w3.org/2000/svg">
<path opacity="0.25" fill-rule="evenodd" clip-rule="evenodd" d="M19.9462 38.6924C30.4099 38.6924 38.8924 30.2546 38.8924 19.8462C38.8924 9.43772 30.4099 1 19.9462 1C9.4825 1 1 9.43772 1 19.8462C1 30.2546 9.4825 38.6924 19.9462 38.6924Z" stroke="white" stroke-width="1.5"/>
<path d="M15.5978 16.0414C16.4849 16.0414 17.204 15.3261 17.204 14.4438C17.204 13.5614 16.4849 12.8461 15.5978 12.8461C14.7108 12.8461 13.9917 13.5614 13.9917 14.4438C13.9917 15.3261 14.7108 16.0414 15.5978 16.0414Z" fill="white"/>
<path d="M16.9363 17.1088H14.2594C14.1116 17.1088 13.9917 17.2281 13.9917 17.375V25.3635C13.9917 25.5104 14.1116 25.6297 14.2594 25.6297H16.9363C17.0841 25.6297 17.204 25.5104 17.204 25.3635V17.375C17.204 17.2281 17.0841 17.1088 16.9363 17.1088Z" fill="white"/>
<path d="M24.9135 16.6657C23.7694 16.2758 22.3383 16.6183 21.4801 17.2323C21.4507 17.1178 21.3457 17.0326 21.221 17.0326H18.5441C18.3963 17.0326 18.2764 17.1519 18.2764 17.2989V25.2873C18.2764 25.4342 18.3963 25.5535 18.5441 25.5535H21.221C21.3687 25.5535 21.4887 25.4342 21.4887 25.2873V19.5463C21.9213 19.1756 22.4786 19.0574 22.9347 19.2502C23.377 19.436 23.6302 19.8898 23.6302 20.4942V25.2873C23.6302 25.4342 23.7501 25.5535 23.8979 25.5535H26.5748C26.7226 25.5535 26.8425 25.4342 26.8425 25.2873V19.9579C26.812 17.7697 25.7771 16.9596 24.9135 16.6657Z" fill="white"/>
</svg>
