<svg width="21" height="18" viewBox="0 0 21 18" fill="none" xmlns="http://www.w3.org/2000/svg">
<rect width="20" height="17.7778" transform="translate(0.236511 0.03125)" fill="white"/>
<path d="M16.0698 8.17944H4.40318C3.4827 8.17944 2.73651 8.84273 2.73651 9.66093V14.8461C2.73651 15.6643 3.4827 16.3276 4.40318 16.3276H16.0698C16.9903 16.3276 17.7365 15.6643 17.7365 14.8461V9.66093C17.7365 8.84273 16.9903 8.17944 16.0698 8.17944Z" stroke="#AE163A" stroke-linecap="round" stroke-linejoin="round"/>
<path d="M6.06985 8.17936V5.2164C6.06985 4.23412 6.50883 3.29206 7.29024 2.59749C8.07164 1.90291 9.13145 1.5127 10.2365 1.5127C11.3416 1.5127 12.4014 1.90291 13.1828 2.59749C13.9642 3.29206 14.4032 4.23412 14.4032 5.2164V8.17936" stroke="#AE163A" stroke-linecap="round" stroke-linejoin="round"/>
</svg>
