<svg width="20" height="21" viewBox="0 0 20 21" fill="none" xmlns="http://www.w3.org/2000/svg">
<path d="M7.81131 19.01C7.81131 20.11 8.75075 21 9.91187 21C11.073 21 12.0124 20.11 12.0124 19.01H7.81131ZM17.1741 14.82V9C17.1741 5.75 14.7991 3.03 11.5902 2.31V1.59C11.5902 0.71 10.8408 0 9.91187 0C8.98298 0 8.23353 0.71 8.23353 1.59V2.31C6.64357 2.66651 5.22719 3.52105 4.21377 4.73522C3.20034 5.94939 2.64922 7.45211 2.64964 9V14.82L0.411865 16.94V18H19.4119V16.94L17.1741 14.82ZM14.1341 11.01H10.9674V14.01H8.85631V11.01H5.68964V9H8.85631V6H10.9674V9H14.1341V11.01Z" fill="white"/>
</svg>
